<svg width="600" height="600" viewBox="0 0 600 600" fill="none" xmlns="http://www.w3.org/2000/svg">
<g clip-path="url(#clip0_280_10248)">
<rect width="600" height="600" rx="300" fill="#FF5A42"/>
<path d="M246.691 277.141C228.151 277.141 213.061 262.051 213.061 243.541C213.061 225.031 228.151 209.941 246.691 209.941C265.231 209.941 280.321 225.031 280.321 243.541C280.321 262.051 265.231 277.141 246.691 277.141ZM386.911 243.541C386.911 225.001 371.821 209.941 353.281 209.941C334.741 209.941 319.651 225.031 319.651 243.541C319.651 262.051 334.741 277.141 353.281 277.141C371.821 277.141 386.911 262.051 386.911 243.541ZM501.691 501.691C501.691 464.941 491.851 430.501 474.691 400.831C464.221 382.741 450.991 366.421 435.631 352.441C435.301 352.141 434.971 351.871 434.671 351.601C433.201 350.281 431.731 348.991 430.231 347.731C429.751 347.341 429.271 346.951 428.791 346.531C428.101 345.961 427.441 345.391 426.751 344.821C426.751 344.821 426.751 344.821 426.751 344.851C426.751 344.851 426.751 344.851 426.751 344.821C426.241 344.401 425.701 344.011 425.191 343.591C424.711 343.231 423.781 342.481 423.781 342.481C398.251 322.621 367.861 308.731 334.651 302.971C330.001 302.161 325.291 303.931 322.231 307.501L299.971 333.601L277.711 307.501C274.651 303.931 269.941 302.161 265.291 302.971C230.791 308.941 199.291 323.701 173.191 344.821C167.851 329.761 165.121 313.471 165.541 296.491C167.401 223.891 227.251 165.571 299.881 165.511C374.071 165.451 434.431 225.811 434.431 299.971C434.431 306.901 433.891 313.741 432.871 320.371C432.211 324.661 433.921 328.981 437.311 331.711C450.781 342.601 462.781 354.901 473.221 368.491C478.111 374.851 488.131 373.171 490.741 365.581C497.821 345.001 501.661 322.921 501.661 299.941C501.661 249.481 483.121 203.341 452.491 167.971C449.221 164.191 449.161 158.611 452.401 154.801L477.961 124.831C481.681 120.481 478.591 113.731 472.831 113.731H410.851C392.191 113.731 373.591 111.181 355.651 106.021C337.951 100.951 319.261 98.2207 299.941 98.2207C280.621 98.2207 261.931 100.951 244.231 106.021C226.291 111.181 207.691 113.731 189.031 113.731H127.051C121.321 113.731 118.201 120.451 121.921 124.831L147.481 154.801C150.721 158.611 150.661 164.191 147.391 167.971C116.761 203.341 98.2207 249.481 98.2207 299.941C98.2207 330.661 105.121 359.761 117.391 385.831C118.381 387.931 119.401 389.971 120.451 392.041C120.781 392.701 121.111 393.361 121.471 393.991C121.861 394.711 122.221 395.431 122.611 396.151C123.451 397.711 124.321 399.271 125.191 400.801C124.201 402.481 123.271 404.191 122.341 405.931C121.741 407.041 121.171 408.151 120.601 409.261C120.331 409.801 120.031 410.341 119.761 410.881C119.011 412.351 118.291 413.821 117.601 415.321C117.541 415.471 117.451 415.621 117.391 415.771C116.611 417.391 115.861 419.041 115.141 420.721C104.281 445.501 98.2207 472.831 98.2207 501.631C98.2207 549.991 115.231 594.361 143.611 629.101C180.571 674.371 236.791 703.291 299.791 703.351C308.521 703.351 317.131 702.811 325.591 701.701C335.131 700.471 337.651 687.871 329.311 683.011C308.791 671.071 289.921 656.521 272.911 639.541C272.911 639.541 272.851 639.481 272.821 639.451C268.081 634.711 262.411 630.961 256.051 628.741C231.391 620.221 209.941 604.711 194.131 584.581C176.161 561.721 165.421 532.891 165.421 501.631C165.421 485.911 168.151 470.821 173.101 456.811C172.891 456.631 172.681 456.481 172.501 456.301C172.711 456.481 172.921 456.631 173.101 456.811C180.841 435.031 194.041 415.801 211.051 400.801C234.751 379.891 265.861 367.171 299.881 367.171C333.901 367.171 365.011 379.891 388.711 400.801C405.721 415.801 418.921 435.031 426.661 456.811C431.641 470.851 434.341 485.941 434.341 501.631C434.341 501.631 434.341 501.661 434.341 501.691V632.941C396.091 626.011 360.451 607.921 332.611 580.141C296.311 543.931 276.301 495.721 276.301 444.451C276.301 429.151 278.101 414.061 281.641 399.391C283.351 392.281 276.781 385.951 269.701 387.811C252.211 392.461 235.891 401.131 222.091 413.311C221.101 414.181 220.141 415.081 219.181 415.981C212.971 421.861 209.341 429.991 209.161 438.541C209.101 440.521 209.101 442.501 209.101 444.481C209.101 479.401 215.941 513.331 229.471 545.251C242.521 576.091 261.181 603.751 284.941 627.511C308.701 651.271 336.391 669.931 367.201 682.981C399.151 696.481 433.051 703.351 467.971 703.351H491.491C497.071 703.351 501.571 698.821 501.571 693.271V501.661L501.691 501.691Z" fill="#1A1D2E"/>
</g>
<defs>
<clipPath id="clip0_280_10248">
<rect width="600" height="600" rx="300" fill="white"/>
</clipPath>
</defs>
</svg>
